<svg xmlns="http://www.w3.org/2000/svg" version="1.1" id="LOGO" x="0" y="0" style="enable-background:new 0 0 4547.6 1295.8" xml:space="preserve" viewBox="610.6 244.9 3326.4 806"><style>.st1{fill:#fff}</style><path style="fill:#008cce" d="m1454.7 282.5-844.1 729.6h283l561.1-484.9z"/><path class="st1" d="M984.4 1012.1h283.1l157.6-136.2 157.6 136.2h429.1V282.5h-183.3l-844.1 729.6zm693.7-162.2h-223l373.4-322.7V980l-150.4-130.1zM3937 1012.1l-38.3-33.1-143.6-124.1c38.4-60.5 60.5-131.3 60.5-207 0-222.5-190.8-403-426.2-403-235.4 0-426.2 180.4-426.2 403s190.8 403 426.2 403c86.1 0 166.3-24.2 233.4-65.7l31.2 27h283zm-547.7-140.5c-130.7 0-236.7-100.2-236.7-223.8s106-223.8 236.7-223.8S3626 524.3 3626 647.9c0 28.7-5.7 56.2-16.2 81.4l-38.6-33.4h-283.1l186.1 160.9c-26.3 9.6-54.9 14.8-84.9 14.8zM2487.4 486.9l-234.7-204.4H2069.4v729.6h183.2V532.5l234.8 202.9 234.8-202.9v479.6h183.3V282.5h-183.3z"/></svg>